<svg xmlns="http://www.w3.org/2000/svg" width="500" height="500" viewBox="0 0 500 500" version="1.1"><path d="M 423.320 193 C 423.320 196.575, 423.502 198.037, 423.723 196.250 C 423.945 194.463, 423.945 191.537, 423.723 189.750 C 423.502 187.963, 423.320 189.425, 423.320 193 M 77.328 205.500 C 77.333 209.350, 77.513 210.802, 77.730 208.728 C 77.946 206.653, 77.943 203.503, 77.722 201.728 C 77.501 199.952, 77.324 201.650, 77.328 205.500 M 119.382 261.500 C 119.384 268.100, 119.546 270.670, 119.741 267.211 C 119.937 263.752, 119.936 258.352, 119.738 255.211 C 119.540 252.070, 119.380 254.900, 119.382 261.500 M 137.310 299.500 C 137.315 302.800, 137.502 304.029, 137.725 302.232 C 137.947 300.435, 137.943 297.735, 137.715 296.232 C 137.486 294.729, 137.304 296.200, 137.310 299.500 M 77.355 309.500 C 77.352 314.450, 77.521 316.601, 77.731 314.280 C 77.940 311.959, 77.943 307.909, 77.736 305.280 C 77.530 302.651, 77.358 304.550, 77.355 309.500 M 261.286 314.500 C 261.294 317.250, 261.488 318.256, 261.718 316.736 C 261.947 315.216, 261.941 312.966, 261.704 311.736 C 261.467 310.506, 261.279 311.750, 261.286 314.500" stroke="none" fill="#c5c5c5" fill-rule="evenodd"/><path d="M 241.253 52.926 C 231.886 57.468, 218.216 65.999, 215.507 68.993 C 212.907 71.865, 214.202 71.485, 220.293 67.589 C 229.592 61.641, 241.393 56.004, 244.553 56.002 C 249.452 55.999, 275.210 69.260, 279.490 73.989 C 281.170 75.845, 281.274 75.839, 284.590 73.692 C 286.452 72.486, 287.981 70.962, 287.988 70.305 C 288.017 67.482, 260.131 51.360, 252 49.499 C 250.272 49.104, 246.954 50.162, 241.253 52.926 M 179.356 89.105 C 163.816 97.154, 152.024 104.418, 152.965 105.362 C 153.446 105.845, 158.159 103.855, 163.662 100.846 C 169.073 97.888, 176.366 94.188, 179.869 92.625 L 186.238 89.781 193.369 93.403 C 197.291 95.394, 205.155 99.937, 210.845 103.496 C 221.696 110.286, 222.492 110.428, 226.262 106.263 C 227.938 104.411, 227.845 104.228, 223.751 101.290 C 215.387 95.287, 194.612 84, 191.927 84 C 190.434 84, 184.777 86.297, 179.356 89.105 M 298.782 89.764 C 287.361 95.625, 274 103.895, 274 105.104 C 274 106.686, 275.658 106.084, 282.148 102.142 C 291.217 96.634, 297.889 93.376, 302.815 92.050 C 306.662 91.014, 307.650 91.151, 312.571 93.404 C 320.002 96.806, 335.991 106.283, 340.080 109.709 C 341.912 111.244, 343.088 111.972, 342.694 111.326 C 342.266 110.627, 343.194 109.286, 344.988 108.008 C 346.645 106.829, 348 105.435, 348 104.912 C 348 103.649, 335.861 95.848, 324.565 89.851 C 312.846 83.630, 310.747 83.622, 298.782 89.764 M 125 120.319 C 115.538 124.227, 93.085 138.419, 94.355 139.688 C 94.625 139.958, 98.363 138.043, 102.662 135.434 C 113.277 128.990, 121.931 125.002, 125.300 125.001 C 126.839 125, 129.539 125.741, 131.300 126.647 C 136.411 129.278, 154.200 140.134, 157.691 142.753 L 160.882 145.147 163.941 142.886 C 168.811 139.285, 168.942 139.442, 152.500 129.173 C 143.709 123.682, 133.043 117.993, 131.599 118.024 C 130.995 118.037, 128.025 119.070, 125 120.319 M 246.416 120.026 C 243.730 120.849, 235.221 125.754, 217.750 136.550 C 213.170 139.380, 211.830 141, 214.070 141 C 214.658 141, 217.021 139.710, 219.320 138.133 C 221.619 136.556, 227.362 133.181, 232.082 130.633 C 244.186 124.099, 247.192 124.209, 260.436 131.667 C 265.971 134.784, 273.024 139.032, 276.108 141.108 L 281.717 144.882 285.056 142.094 L 288.396 139.306 283.448 135.694 C 275.215 129.683, 256.727 119.810, 253 119.435 C 251.075 119.240, 248.112 119.507, 246.416 120.026 M 369.500 119.950 C 361.862 121.794, 334 136.994, 334 139.318 C 334 140.367, 333.121 140.752, 348.043 133.177 C 365.055 124.542, 366.419 124.443, 378.603 130.953 C 389.010 136.513, 399.662 143.387, 401.824 145.938 C 402.552 146.797, 402.885 146.972, 402.562 146.326 C 402.240 145.681, 403.332 144.188, 404.988 143.008 C 406.645 141.829, 408 140.458, 408 139.962 C 408 137.985, 380.125 121.150, 374.500 119.731 C 373.400 119.453, 371.150 119.552, 369.500 119.950 M 306.677 155.187 C 297.770 158.433, 275.416 172.302, 274.704 175.024 C 274.247 176.770, 274.493 176.727, 277.350 174.564 C 283.227 170.113, 301.611 161, 304.712 161 C 306.384 161, 310.170 162.075, 313.126 163.388 C 318.727 165.878, 334.408 174.730, 338.972 177.980 C 341.586 179.841, 341.635 179.836, 344.804 177.356 C 346.562 175.981, 348 174.484, 348 174.031 C 348 171.813, 315.529 153.945, 311.741 154.079 C 310.508 154.122, 308.230 154.621, 306.677 155.187 M 182.917 157.292 C 170.876 162.358, 155 172.154, 155 174.518 C 155 175.548, 156.031 175.240, 158.741 173.401 C 162.833 170.624, 175.452 164.446, 181 162.503 C 183.853 161.504, 185.424 161.547, 189.500 162.737 C 195.606 164.520, 210.036 171.854, 216.548 176.484 L 221.342 179.892 224.141 177.900 C 225.680 176.804, 227.195 175.494, 227.506 174.990 C 229.062 172.472, 200.154 156.303, 192.500 155.410 C 189.714 155.085, 186.805 155.656, 182.917 157.292 M 418 173.130 C 368.722 200.096, 294.935 243.104, 283.351 251.614 C 276.219 256.853, 271.922 261.245, 277.539 257.554 C 295.687 245.630, 393.196 189.421, 412.657 179.664 C 420.784 175.589, 421.898 175.266, 422.560 176.787 C 422.970 177.729, 423.514 191.887, 423.769 208.250 C 424.025 224.613, 424.518 237.990, 424.867 237.978 C 425.215 237.966, 426.586 237.121, 427.913 236.101 L 430.325 234.246 429.641 203.873 C 428.940 172.811, 428.611 168.990, 426.633 169.013 C 426.010 169.020, 422.125 170.873, 418 173.130 M 85 174.918 C 85 176.523, 84.770 178.436, 84.489 179.169 C 84.186 179.957, 85.122 181.008, 86.775 181.740 C 90.590 183.429, 139.475 211.447, 185.576 238.368 C 189.468 240.641, 202.611 248.125, 214.784 255 L 236.915 267.500 236.958 285.683 C 236.998 303.188, 237.077 303.890, 239.075 304.524 C 240.217 304.886, 241.450 304.884, 241.815 304.518 C 242.181 304.152, 242.645 294.318, 242.848 282.663 L 243.215 261.472 207.858 241.229 C 188.411 230.095, 165.075 216.665, 156 211.386 C 113.526 186.677, 87.266 172, 85.529 172 C 85.238 172, 85 173.313, 85 174.918 M 238.500 193.640 C 217.408 205.195, 212.735 208.135, 213.787 209.187 C 214.431 209.831, 216.102 209.342, 218.635 207.765 C 226.806 202.680, 243.885 194, 245.719 194 C 247.646 194, 268.765 205.678, 276.655 211.106 C 278.968 212.698, 281.135 214, 281.471 214 C 282.467 214, 288 209.685, 288 208.908 C 288 207.402, 253.790 186.947, 251.414 187.033 C 250.911 187.051, 245.100 190.024, 238.500 193.640 M 119.483 273.746 C 118.460 309.211, 119.169 333.083, 121.344 336.402 C 122.255 337.793, 126.263 341.017, 130.251 343.567 C 134.238 346.117, 138.625 348.981, 140 349.933 C 144.848 353.287, 180.593 373.379, 187.810 376.807 C 191.996 378.795, 195.477 379.899, 195.955 379.390 C 196.414 378.900, 197.075 377.138, 197.425 375.473 C 198.032 372.586, 197.795 372.318, 192.280 369.648 C 179.667 363.542, 148.276 345.348, 135.500 336.739 C 128.988 332.351, 127.263 330.636, 126.226 327.523 C 125.266 324.638, 125.020 314.652, 125.226 286.895 L 125.500 250.092 123.203 249.046 C 121.940 248.471, 120.753 248, 120.566 248 C 120.379 248, 119.892 259.586, 119.483 273.746 M 144.404 279.660 C 143.578 284.061, 142.618 283.256, 160.673 293.298 C 168.278 297.529, 188.450 308.993, 205.500 318.775 L 236.500 336.561 236.761 380.302 C 236.904 404.359, 236.641 426.465, 236.177 429.426 C 235.393 434.423, 235.459 434.730, 237.095 433.708 C 241.934 430.687, 242.943 419.658, 242.968 369.500 L 242.987 330.500 240.244 328.925 C 160.632 283.212, 147.776 276, 145.896 276 C 145.453 276, 144.782 277.647, 144.404 279.660 M 306.693 288.799 C 302.561 293.111, 301.759 302.404, 302.167 341.203 C 302.572 379.746, 302.576 379.767, 309.255 377.410 C 319.757 373.705, 359.766 351.054, 371 342.454 C 378.507 336.707, 382.178 332.397, 375.500 337.171 C 361.683 347.047, 316.116 372, 311.898 372 C 310.665 372, 309.764 370.812, 309.053 368.250 C 307.740 363.525, 307.632 293.769, 308.930 289.243 C 309.442 287.460, 309.751 286, 309.617 286 C 309.484 286, 308.168 287.259, 306.693 288.799 M 417 291.076 C 400.367 299.897, 389.720 307.053, 391.131 308.464 C 391.360 308.693, 393.786 307.477, 396.523 305.762 C 406.847 299.293, 422.249 291.849, 423.247 292.847 C 423.866 293.466, 424.052 302.683, 423.746 317.666 C 423.351 337.026, 422.895 342.855, 421.315 348.719 C 419.826 354.246, 419.695 355.668, 420.758 354.786 C 426.011 350.427, 428.943 336.888, 429.706 313.472 C 430.321 294.597, 429.689 285.987, 427.689 286.019 C 427.035 286.030, 422.225 288.305, 417 291.076 M 261.310 304.500 C 261.315 307.800, 261.502 309.029, 261.725 307.232 C 261.947 305.435, 261.943 302.735, 261.715 301.232 C 261.486 299.729, 261.304 301.200, 261.310 304.500 M 137.168 315.691 C 137.076 321.846, 137.338 327.092, 137.750 327.349 C 138.162 327.606, 138.379 324.145, 138.231 319.658 C 137.768 305.640, 137.343 304.054, 137.168 315.691 M 383.272 322 C 383.272 324.475, 383.467 325.488, 383.706 324.250 C 383.944 323.012, 383.944 320.988, 383.706 319.750 C 383.467 318.512, 383.272 319.525, 383.272 322 M 92 368.313 C 92 368.485, 93.463 369.948, 95.250 371.563 L 98.500 374.500 95.563 371.250 C 92.825 368.221, 92 367.540, 92 368.313" stroke="none" fill="#d9d9d9" fill-rule="evenodd"/><path d="M 173.435 96.034 C 161.711 102.075, 146.993 110.868, 147.017 111.817 C 147.037 112.647, 164.169 123, 165.523 123 C 166.051 123, 168.868 124.643, 171.784 126.651 C 178.906 131.557, 184.445 132.112, 192.759 128.753 C 200.546 125.608, 218.027 115.733, 220.348 113.168 C 222.079 111.256, 221.917 111.072, 213.811 105.764 C 201.786 97.890, 188.692 91, 185.750 91 C 184.349 91, 178.807 93.265, 173.435 96.034 M 292.782 96.764 C 281.629 102.487, 268 110.886, 268 112.035 C 268 112.491, 269.238 113.733, 270.750 114.795 C 274.682 117.557, 304.287 133.295, 305.588 133.316 C 306.819 133.336, 328.759 121.382, 336.750 116.338 C 339.637 114.516, 342 112.560, 342 111.992 C 342 110.659, 330.138 102.995, 318.565 96.851 C 306.846 90.630, 304.747 90.622, 292.782 96.764 M 295.500 164.629 C 287.175 168.896, 274.500 176.335, 271 179.007 C 268.986 180.545, 268.709 181.255, 269.577 182.657 C 270.955 184.885, 294.994 198.479, 301.267 200.578 C 306.007 202.163, 306.074 202.154, 312.665 199.070 C 319.816 195.723, 337.396 185.593, 340.250 183.173 C 341.212 182.358, 342 181.356, 342 180.949 C 342 178.653, 309.419 160.989, 305.241 161.020 C 303.733 161.031, 299.350 162.655, 295.500 164.629 M 178.989 163.385 C 169.417 167.052, 149 179.019, 149 180.962 C 149 184.075, 179.151 201, 184.696 201 C 189.021 201, 210.601 190.428, 218.799 184.292 C 221.560 182.226, 221.893 181.577, 220.842 180.310 C 217.022 175.706, 192.693 163.096, 186.367 162.440 C 184.240 162.220, 180.920 162.645, 178.989 163.385 M 403.500 184.819 C 384.029 195.505, 365.280 206.175, 328.500 227.501 C 275.473 258.248, 271.568 260.951, 266.943 270.113 C 262.025 279.856, 261.687 285.683, 261.589 362.500 C 261.500 432.111, 261.512 432.526, 263.650 437.151 C 268.825 448.345, 272.972 446.605, 358 397.556 C 394.285 376.625, 409.416 367.243, 413.201 363.328 C 421.255 354.997, 423.396 344.977, 423.457 315.339 C 423.481 303.700, 423.150 293.825, 422.722 293.394 C 421.226 291.888, 393.275 306.989, 387.528 312.408 C 384.537 315.230, 383.999 316.402, 383.994 320.118 C 383.977 334.070, 377.535 340.477, 344.219 359.678 C 328.583 368.690, 311.259 377.415, 306.813 378.518 C 304.329 379.135, 304.043 378.873, 303.009 375.034 C 301.265 368.556, 302.052 295.373, 303.905 291.762 C 305.994 287.691, 342.781 264.378, 371.394 248.993 C 383.234 242.625, 383.406 242.711, 384.474 255.533 C 384.862 260.190, 385.477 263.998, 385.840 263.996 C 386.203 263.994, 394.825 259.105, 405 253.130 L 423.500 242.268 423.336 212.500 C 423.167 181.711, 422.754 175.987, 420.705 176.019 C 420.042 176.030, 412.300 179.990, 403.500 184.819" stroke="none" fill="#55b6fe" fill-rule="evenodd"/><path d="M 238.183 57.955 C 225.150 64.015, 207.335 76.116, 208.551 78.082 C 208.850 78.566, 215.711 82.860, 223.797 87.625 C 231.884 92.389, 239.863 97.098, 241.529 98.088 L 244.558 99.890 261.214 90.695 C 281.709 79.381, 282.529 78.820, 281.707 76.678 C 280.319 73.062, 252.507 57.376, 245.780 56.416 C 243.728 56.123, 240.884 56.699, 238.183 57.955 M 116.377 128.387 C 102.606 134.986, 87.741 145.163, 88.601 147.402 C 89.302 149.229, 108.736 160.663, 117.147 164.197 C 123.426 166.835, 124.466 167.003, 127.802 165.922 C 137.683 162.718, 161 149.222, 161 146.708 C 161 144.181, 129.532 125, 125.386 125 C 124.318 125, 120.263 126.524, 116.377 128.387 M 237 128.563 C 231.119 131.282, 206.993 146.092, 207.010 146.973 C 207.021 147.505, 230.511 161.297, 237 164.580 C 241.793 167.006, 248.486 166.804, 254.444 164.055 C 264.737 159.305, 282 147.945, 282 145.922 C 282 144.944, 268.551 136.427, 257.899 130.658 C 247.890 125.238, 244.850 124.933, 237 128.563 M 361 127.433 C 350.108 131.452, 327.735 144.507, 328.323 146.500 C 328.764 147.995, 337.940 153.892, 352.331 161.930 L 365.162 169.096 378.331 161.906 C 395.729 152.407, 402.231 148.192, 401.743 146.728 C 400.691 143.572, 370.464 125.917, 366.376 126.070 C 365.344 126.109, 362.925 126.722, 361 127.433 M 78.334 185.709 C 77.141 195.420, 77.513 333.807, 78.757 343.122 C 79.544 349.017, 80.557 351.966, 83.229 356.144 C 89.062 365.263, 97.311 373.384, 104.214 376.805 C 107.671 378.518, 116.350 383.391, 123.500 387.633 C 147.470 401.853, 187.342 424.202, 204.690 433.142 C 223.352 442.759, 228.048 443.952, 231.935 440.065 C 235.981 436.019, 236.298 432.321, 236.741 383.997 L 237.167 337.493 211.833 322.879 C 152.040 288.384, 140.547 282.120, 139.312 283.352 C 138.865 283.798, 138.363 293.737, 138.196 305.438 L 137.892 326.714 159.696 339.013 C 192.471 357.500, 196.802 360.427, 197.589 364.623 C 198.316 368.496, 197.699 378.635, 196.674 379.659 C 195.376 380.957, 188.280 377.915, 173.445 369.701 C 144.653 353.760, 126.572 342.453, 122 337.532 L 119.500 334.841 119.200 291.771 C 119.035 268.082, 119.260 248.354, 119.700 247.929 C 120.140 247.505, 129.500 252.347, 140.500 258.689 C 225.925 307.940, 234.578 312.755, 235.683 311.651 C 236.133 311.203, 236.650 301.270, 236.834 289.577 L 237.168 268.318 201.334 247.773 C 181.625 236.473, 158.750 223.301, 150.500 218.502 C 103.197 190.988, 84.941 180.718, 81.334 179.594 C 79.308 178.962, 79.114 179.357, 78.334 185.709 M 231 201.336 C 215.453 209.775, 206.997 214.885, 207.007 215.836 C 207.030 218.105, 240.930 237, 244.977 237 C 249.280 237, 282 218.441, 282 216 C 282 214.182, 248.517 193.992, 245.523 194.004 C 244.960 194.007, 238.425 197.306, 231 201.336" stroke="none" fill="#295474" fill-rule="evenodd"/></svg>